<?xml version="1.0" encoding="UTF-8"?>
<svg version="1.1" xmlns="http://www.w3.org/2000/svg" width="425" height="194">
<path d="M0 0 C5.24848754 5.02029242 6.14972015 8.9278309 6.375 15.9375 C6.30784342 23.44224754 4.12456431 29.25621741 1 36 C0.54238281 37.03382812 0.08476562 38.06765625 -0.38671875 39.1328125 C-5.02896323 49.07866231 -11.23879026 57.3414806 -20 64 C-20.66 64 -21.32 64 -22 64 C-22.66 71.26 -23.32 78.52 -24 86 C-22.948125 84.30875 -21.89625 82.6175 -20.8125 80.875 C-12.99003355 68.62977083 -12.99003355 68.62977083 -7 66 C-1.81225296 65.37747036 -1.81225296 65.37747036 0.60546875 67.23046875 C3.07332974 70.36195623 3.27785074 74.16705393 4 78 C9.16226191 74.87425551 12.20465394 71.61760013 13.81568909 65.69799805 C14.46683168 62.92030887 15.0680702 60.13724996 15.62185669 57.33850098 C16.36542348 53.60331252 17.21588309 49.89264187 18.0625 46.1796875 C18.22537003 45.45740967 18.38824005 44.73513184 18.55604553 43.9909668 C20.43210054 35.83464554 23.2895394 28.47140366 27 21 C27.29793457 20.38769531 27.59586914 19.77539062 27.90283203 19.14453125 C30.94525246 12.93935949 33.75430877 7.6168702 39 3 C42 2.375 42 2.375 45 3 C48.3724337 5.47311805 49.7546934 7.16595757 50.9375 11.1875 C51.26141095 30.94606783 37.85345199 52.35099954 27.2109375 68.1953125 C24.71307453 72.12961071 23.83907193 75.86244501 23.1875 80.4375 C23.06987305 81.18249756 22.95224609 81.92749512 22.83105469 82.69506836 C21.63865545 90.64990091 21.84240128 98.04150878 23 106 C26.88945793 106.44896748 26.88945793 106.44896748 28.69555664 104.45532227 C33.33425847 98.27427093 36.96967433 91.83463754 40.4375 84.9375 C40.99735596 83.8436499 41.55721191 82.7497998 42.1340332 81.62280273 C44.63497235 76.72436435 47.1006815 71.80879021 49.546875 66.8828125 C49.91498291 66.14168213 50.28309082 65.40055176 50.66235352 64.63696289 C51.32683942 63.29232447 51.98649417 61.94528349 52.64038086 60.59545898 C53.90289964 58.01771329 54.95332164 56.04667836 57 54 C60.0625 53.8125 60.0625 53.8125 63 54 C64 55 64 55 64.3125 57.375 C64.02258526 60.73801103 63.40687299 62.78468067 62.1875 65.875 C59.40188003 73.04227132 58.2510191 80.44649832 57 88 C64.8812703 83.50998198 70.14079012 77.08640743 75.375 69.8125 C75.80385498 69.21848389 76.23270996 68.62446777 76.67456055 68.01245117 C78.93470194 64.79378981 80.72334941 61.72473332 82 58 C88.0546875 57.8046875 88.0546875 57.8046875 90 58 C90.66 58.66 91.32 59.32 92 60 C91.80362474 64.61481858 90.54841537 68.43067904 88.9453125 72.75390625 C88.58195801 73.73818604 88.21860352 74.72246582 87.84423828 75.73657227 C87.42634033 76.85696899 87.42634033 76.85696899 87 78 C87.4940332 77.48501953 87.98806641 76.97003906 88.49707031 76.43945312 C90.73755422 74.11591046 92.99344014 71.8079287 95.25 69.5 C96.02730469 68.68917969 96.80460938 67.87835938 97.60546875 67.04296875 C98.35957031 66.27597656 99.11367188 65.50898437 99.890625 64.71875 C100.92751465 63.65043945 100.92751465 63.65043945 101.98535156 62.56054688 C104 61 104 61 108 61 C107.56215084 65.81259386 105.70280636 67.67719229 102.1953125 70.87890625 C101.20891487 71.80978394 100.22326184 72.74145116 99.23828125 73.67382812 C97.69132754 75.11613927 96.13852583 76.55025111 94.57080078 77.9699707 C87.24323577 84.64632604 83.50719776 89.94141233 82 100 C81.55321786 101.98072329 81.08832038 103.95744681 80.60546875 105.9296875 C80.37537109 106.90317139 80.14527344 107.87665527 79.90820312 108.87963867 C73.65408533 134.8727861 73.65408533 134.8727861 67.1875 141.375 C62.92708368 143.54697695 59.67580717 144.11636919 55 143 C51.92700935 141.50290199 49.9051572 139.84597558 48 137 C46.6535528 132.76361734 47.43085675 129.36116776 49.1171875 125.328125 C50.61904392 122.45430244 52.25301853 119.73136078 54 117 C54.50660156 116.19820313 55.01320313 115.39640625 55.53515625 114.5703125 C58.58708759 109.99616479 61.96798018 105.86487301 65.62133789 101.76928711 C73.14314473 93.30936855 75.6576515 87.18234666 77 76 C76.29875 76.88042969 75.5975 77.76085937 74.875 78.66796875 C68.79714057 86.1652858 63.76406497 92.27078051 54.25 95.125 C51 95 51 95 48.625 92.6875 C47 90 47 90 46 88 C45.18208984 89.55847656 45.18208984 89.55847656 44.34765625 91.1484375 C32.79009263 112.70152213 32.79009263 112.70152213 24 116 C20.13748039 115.86205287 17.79621792 115.60254329 14.6875 113.25 C7.48000543 103.64000724 9.94323055 90.15269187 11 79 C6.58601385 83.64328413 2.72863779 88.23734421 -0.5625 93.75 C-3.5247742 98.55441737 -5.96531148 101.38942077 -11 104 C-14.21241032 104 -15.397686 103.5192362 -17.8125 101.4375 C-18.204375 100.963125 -18.59625 100.48875 -19 100 C-18.00652685 96.83894907 -17.12157692 95.1150052 -14.6875 92.8125 C-9.45084193 87.33227644 -6.74479308 80.29640742 -5 73 C-12.12779476 75.24574356 -14.93181334 81.34731549 -18.453125 87.56640625 C-20.93464326 92.34258145 -22.86478736 97.13409308 -24.421875 102.28515625 C-25 104 -25 104 -26 105 C-29.3125 105 -29.3125 105 -33 104 C-36.54616915 99.33398796 -37.28626419 95.83583985 -38 90 C-38.56847656 90.94101563 -39.13695312 91.88203125 -39.72265625 92.8515625 C-47.91109805 106.16624692 -47.91109805 106.16624692 -54 110 C-58.0061684 110.62164682 -60.10353021 110.42786058 -63.75 108.6875 C-67.00599404 106.24550447 -68.69471469 104.91585593 -70 101 C-71.09840372 87.88252483 -68.62079677 74.87591097 -61 64 C-57.60563152 60.759921 -55.38029648 59.10417332 -50.6875 58.75 C-46.80344923 59.01332548 -45.05468596 59.66406368 -42 62 C-40.1672487 65.6655026 -40.76931973 69.18084667 -42 73 C-45.96433236 78.69301398 -50.86141897 83.70612725 -57 87 C-57.66 87 -58.32 87 -59 87 C-59 92.61 -59 98.22 -59 104 C-52.6415517 100.82077585 -50.11775548 98.50426138 -46 93 C-45.25105469 92.01644531 -44.50210938 91.03289062 -43.73046875 90.01953125 C-37.7306545 81.49984489 -35.64985041 73.16103725 -33.88012695 62.98144531 C-30.45688408 43.52545825 -24.67970476 14.88608398 -9.00390625 1.265625 C-5.8316793 -0.73788676 -3.65501519 -0.57710766 0 0 Z M-4.3605957 7.30175781 C-9.09200632 13.28847201 -11.12026756 19.47065819 -13.1875 26.75 C-13.51685547 27.8534375 -13.84621094 28.956875 -14.18554688 30.09375 C-15.15775844 33.38728581 -16.08766814 36.68941207 -17 40 C-17.31018066 41.10923828 -17.62036133 42.21847656 -17.93994141 43.36132812 C-18.22401855 44.42287109 -18.5080957 45.48441406 -18.80078125 46.578125 C-19.18423706 47.9997998 -19.18423706 47.9997998 -19.57543945 49.45019531 C-20.00587353 52.03527493 -19.84845716 53.54866135 -19 56 C-10.63486693 46.48787469 0.14976096 34.19085133 1 21 C1.05542969 20.14535156 1.11085938 19.29070313 1.16796875 18.41015625 C1.30887965 13.84061718 1.20176317 10.12830594 -1 6 C-3.07298552 5.76956302 -3.07298552 5.76956302 -4.3605957 7.30175781 Z M43 10 C38.70281134 14.370177 37.23919693 19.35964553 35.4375 25.0625 C34.98407227 26.46616821 34.98407227 26.46616821 34.52148438 27.89819336 C29.98059246 39.79699557 29.98059246 39.79699557 30 52 C40.1070826 31.71957777 40.1070826 31.71957777 44 10 C43.67 10 43.34 10 43 10 Z M28 52 C29 54 29 54 29 54 Z M-50 64 C-53.82567192 68.66253765 -55.00581033 73.11335061 -56 79 C-51.75852693 77.58617564 -49.99249187 74.93092389 -48 71 C-47.58008019 67.20595397 -47.58008019 67.20595397 -48 64 C-48.66 64 -49.32 64 -50 64 Z M71 103 C65.9028231 108.63942976 61.92447144 114.45727019 58.4375 121.1875 C57.89996094 122.18426758 57.89996094 122.18426758 57.3515625 123.20117188 C55.04309466 127.83190318 54.76821421 130.8103451 56 136 C56.99 136.33 57.98 136.66 59 137 C65.51165771 131.14703599 67.57399682 121.59154826 69.875 113.4375 C70.2160376 112.24048462 70.2160376 112.24048462 70.56396484 111.01928711 C71.91832092 106.95898031 71.91832092 106.95898031 71 103 Z " fill="#5370F3" transform="translate(211,20)"/>
<path d="M0 0 C0.99 0.99 0.99 0.99 2 2 C-0.98822771 11.18486832 -5.09051359 18.71310111 -10.3046875 26.76171875 C-12.51022572 30.17849517 -14.53075811 33.66443329 -16.5090332 37.21630859 C-23.01215179 48.85616161 -30.45779231 59.83850369 -37.89160156 70.89428711 C-42.69380948 78.03744418 -47.46415561 85.18324596 -52 92.5 C-59.55998567 104.65330662 -67.60933187 116.49017523 -75.57302856 128.38067627 C-79.0240043 133.5350664 -82.46081246 138.69869523 -85.890625 143.8671875 C-102.32208496 168.61948604 -102.32208496 168.61948604 -109.125 178.3125 C-109.57955566 178.96347656 -110.03411133 179.61445313 -110.50244141 180.28515625 C-112.76347009 183.46519504 -114.96203704 186.52936747 -118 189 C-119.32 189 -120.64 189 -122 189 C-123.02987665 177.67135684 -116.879277 167.22322798 -111.5625 157.625 C-110.64041748 155.9387854 -110.64041748 155.9387854 -109.69970703 154.21850586 C-100.59311815 137.67156567 -90.86218438 121.52684406 -80.67773438 105.62402344 C-78.80424617 102.69383555 -76.94107583 99.75721031 -75.078125 96.8203125 C-64.1319739 79.59473237 -52.73022814 62.82519739 -40.70458984 46.33837891 C-39.55697532 44.76406611 -38.41150632 43.18818732 -37.26806641 41.61083984 C-31.03829307 33.01858893 -24.7313477 24.50824343 -18.0625 16.25 C-17.55525391 15.61884277 -17.04800781 14.98768555 -16.52539062 14.33740234 C-6.17479332 1.68403454 -6.17479332 1.68403454 0 0 Z " fill="#5270F7" transform="translate(401,5)"/>
<path d="M0 0 C4.875 0.875 4.875 0.875 6 2 C6.29078473 4.77860966 6.43210363 6.39144247 4.78515625 8.7109375 C4.21667969 9.26007812 3.64820313 9.80921875 3.0625 10.375 C-17.14733322 32.13316722 -26.44418682 65.59192226 -36 93 C-41.65087891 94.19433594 -41.65087891 94.19433594 -44.79296875 92.4453125 C-47.45195536 89.49924946 -47.84608195 87.78537353 -48.3125 83.875 C-48.45300781 82.82054688 -48.59351563 81.76609375 -48.73828125 80.6796875 C-49.38993399 71.51764452 -48.75407766 62.5156441 -48 53.375 C-47.90460938 52.18003906 -47.80921875 50.98507813 -47.7109375 49.75390625 C-47.47747582 46.8356352 -47.24042446 43.91770424 -47 41 C-51.53647977 48.30048377 -55.63859447 55.79919392 -59.58666992 63.43041992 C-60.55768084 65.30320531 -61.53932652 67.17015113 -62.52148438 69.03710938 C-66.17749309 76.05475827 -69.29162081 82.98189328 -71.87475586 90.47729492 C-73 93 -73 93 -76 95 C-81.26383483 95.54831613 -81.26383483 95.54831613 -83.69921875 93.734375 C-85 92 -85 92 -85.14453125 90.08984375 C-84.53338112 86.12815288 -83.85402675 82.19546977 -83.04296875 78.26953125 C-79.30227246 59.66552728 -78.06216193 40.90724504 -77 22 C-77.99 21.34 -78.98 20.68 -80 20 C-80.39307503 15.93822471 -80.52833811 13.24314849 -78.9375 9.5 C-77 8 -77 8 -73.5625 7.375 C-70 8 -70 8 -67.625 10.375 C-63.17129127 20.31019639 -65.44305502 31.73639586 -66.4375 42.25 C-66.66084777 44.68871615 -66.88150903 47.12764391 -67.09962463 49.5668335 C-67.23517571 51.07419709 -67.37408274 52.58126412 -67.51695251 54.08795166 C-67.88361444 58.07388682 -68.06937177 61.9976016 -68 66 C-67.5153125 65.07960938 -67.030625 64.15921875 -66.53125 63.2109375 C-58.44211479 47.90402449 -49.7495833 33.3068785 -40 19 C-35.2421875 19.8046875 -35.2421875 19.8046875 -33.0625 21.5625 C-31.68617779 24.71994507 -32.58149508 26.48960975 -33.45043945 29.70532227 C-34.39607508 33.65380261 -34.70879877 37.64972921 -35.0625 41.6875 C-35.14483887 42.58364014 -35.22717773 43.47978027 -35.31201172 44.40307617 C-36.17703292 54.25318396 -36.61965597 64.12106433 -37 74 C-36.72438232 73.30253662 -36.44876465 72.60507324 -36.16479492 71.88647461 C-14.92529803 18.36959758 -14.92529803 18.36959758 0 0 Z " fill="#5270F4" transform="translate(155,44)"/>
<path d="M0 0 C12.30238677 0 23.39150085 7.85019312 33.5625 14.125 C34.20453369 14.52001709 34.84656738 14.91503418 35.50805664 15.32202148 C40.01799651 18.18053355 44.03089713 21.43307309 48 25 C47.6891092 30.39545973 44.64089719 32.86132287 40.9375 36.375 C40.34622314 36.95008301 39.75494629 37.52516602 39.14575195 38.11767578 C35.45748278 41.68144004 31.70643317 45.16411024 27.79296875 48.48046875 C26.61051052 49.48259566 25.44565351 50.50592082 24.30078125 51.55078125 C22.2419442 53.42204529 20.13484572 55.21545405 18 57 C17.4215332 57.48791016 16.84306641 57.97582031 16.24707031 58.47851562 C14.22810278 60.16014943 12.18051025 61.80080236 10.125 63.4375 C9.47724609 63.98237061 8.82949219 64.52724121 8.16210938 65.08862305 C3.50687275 68.71584751 0.08938525 69.58307016 -5.79907227 69.37866211 C-9.0478254 68.81972521 -10.81163457 67.40014273 -13 65 C-14.65787115 61.68425771 -14.72677412 58.55803332 -14 55 C-8.17727776 44.89767979 4.413876 36.86618263 13.9375 30.4375 C14.55173828 30.02000488 15.16597656 29.60250977 15.79882812 29.17236328 C19.41353673 26.798363 22.83971391 25.17504264 27 24 C27 23.34 27 22.68 27 22 C26.15566406 21.74992187 25.31132812 21.49984375 24.44140625 21.2421875 C20.69844038 19.89115101 17.36134897 18.12069961 13.9375 16.125 C13.0393457 15.61646484 13.0393457 15.61646484 12.12304688 15.09765625 C7.27665298 12.30553884 3.12634689 9.68952034 0 5 C-0.125 2.3125 -0.125 2.3125 0 0 Z " fill="#5370F7" transform="translate(374,64)"/>
<path d="M0 0 C3.98955538 1.38871847 7.02623494 3.84543863 8.94140625 7.67578125 C9.50105042 13.49608063 8.4734395 16.09165299 4.94140625 20.67578125 C2.89136832 22.61071842 0.69776738 24.30158013 -1.55859375 25.98828125 C-2.17444336 26.45903076 -2.79029297 26.92978027 -3.42480469 27.41479492 C-4.68827178 28.37831038 -5.95487296 29.33773026 -7.22460938 30.29296875 C-8.92432814 31.57454584 -10.61054001 32.87163773 -12.29296875 34.17578125 C-28.59364443 46.67578125 -28.59364443 46.67578125 -33.05859375 46.67578125 C-33.05859375 47.33578125 -33.05859375 47.99578125 -33.05859375 48.67578125 C-32.3625 48.77761719 -31.66640625 48.87945312 -30.94921875 48.984375 C-21.88068316 51.15347067 -11.93644578 57.39979937 -6.05859375 64.67578125 C-5.32421875 67.41796875 -5.32421875 67.41796875 -5.05859375 69.67578125 C-11.34418988 71.73986315 -15.6292752 69.02855784 -21.18359375 66.23828125 C-22.11921143 65.7796167 -23.0548291 65.32095215 -24.01879883 64.84838867 C-31.12224879 61.30066511 -37.63898438 57.35775199 -44.05859375 52.67578125 C-45.97385962 51.34043652 -47.89046012 50.00700334 -49.80859375 48.67578125 C-51.22624811 47.67718195 -52.64331685 46.67774719 -54.05859375 45.67578125 C-53.63925914 40.73298606 -51.50301351 38.66781013 -47.99609375 35.30078125 C-47.49440674 34.81601318 -46.99271973 34.33124512 -46.47583008 33.83178711 C-42.45206894 29.97147317 -38.30823393 26.28286415 -34.05859375 22.67578125 C-33.00828204 21.76267551 -31.95888293 20.8485195 -30.91015625 19.93359375 C-27.92261616 17.33334292 -24.90984599 14.76501605 -21.87988281 12.21435547 C-20.68103943 11.20160601 -19.48750185 10.18253669 -18.29980469 9.15673828 C-6.69065098 -0.82554994 -6.69065098 -0.82554994 0 0 Z " fill="#5370F7" transform="translate(54.05859375,61.32421875)"/>
<path d="M0 0 C5.24848754 5.02029242 6.14972015 8.9278309 6.375 15.9375 C6.30786192 23.44018045 4.12808065 29.25943775 1 36 C0.27876953 37.60294922 0.27876953 37.60294922 -0.45703125 39.23828125 C-3.31664356 45.29703767 -6.37305516 50.15272446 -11 55 C-11.33 53.68 -11.66 52.36 -12 51 C-13.98 51.495 -13.98 51.495 -16 52 C-15.6596875 51.50113281 -15.319375 51.00226563 -14.96875 50.48828125 C-13.29244446 48.00503076 -11.6443546 45.5045317 -10 43 C-9.30390625 41.95199219 -8.6078125 40.90398438 -7.890625 39.82421875 C-1.64027017 30.11791956 0.85708448 22.54074223 0 11 C-0.29935205 9.6586286 -0.62203258 8.3213741 -1 7 C-1.66 7 -2.32 7 -3 7 C-3.99 8.485 -3.99 8.485 -5 10 C-7.5625 10.1875 -7.5625 10.1875 -10 10 C-10.33 10 -10.66 10 -11 10 C-11.27585938 10.57621094 -11.55171875 11.15242188 -11.8359375 11.74609375 C-13.34686845 14.67162113 -15.15654519 17.35710995 -16.9765625 20.09765625 C-18.23688814 22.08029422 -18.23688814 22.08029422 -18 25 C-18.66 25.33 -19.32 25.66 -20 26 C-20.69953723 27.97516396 -21.30984911 29.98227121 -21.875 32 C-23.51011956 37.57538888 -25.46322751 42.77802684 -28 48 C-28.66 48 -29.32 48 -30 48 C-26.49325251 31.75822213 -20.82575302 13.09452014 -9 1 C-5.82121306 -0.58939347 -3.5043228 -0.41576711 0 0 Z " fill="#546FE6" transform="translate(211,20)"/>
<path d="M0 0 C2.35546875 0.18359375 2.35546875 0.18359375 5 1 C6.36328125 3.28515625 6.36328125 3.28515625 7.3125 6.0625 C7.63863281 6.98160156 7.96476563 7.90070313 8.30078125 8.84765625 C8.53152344 9.55792969 8.76226562 10.26820312 9 11 C9.99 11 10.98 11 12 11 C11.67 12.65 11.34 14.3 11 16 C10.01 16 9.02 16 8 16 C7.62875 16.9590625 7.62875 16.9590625 7.25 17.9375 C6 20 6 20 3.875 20.75 C2.946875 20.87375 2.946875 20.87375 2 21 C2.20625 21.61875 2.4125 22.2375 2.625 22.875 C2.74875 23.57625 2.8725 24.2775 3 25 C1 27 1 27 -1.625 27.125 C-2.40875 27.08375 -3.1925 27.0425 -4 27 C-4.75 25.4375 -4.75 25.4375 -5 23 C-4.05308731 21.23242964 -3.10063966 19.46252256 -2.0078125 17.78125 C0.20080555 13.87764601 0.11051562 10.16743674 0.0625 5.75 C0.04896484 4.13351563 0.04896484 4.13351563 0.03515625 2.484375 C0.02355469 1.66453125 0.01195312 0.8446875 0 0 Z " fill="#5371FA" transform="translate(206,88)"/>
<path d="M0 0 C0.103125 0.639375 0.20625 1.27875 0.3125 1.9375 C0.6528125 2.9584375 0.6528125 2.9584375 1 4 C1.99 4.33 2.98 4.66 4 5 C3.64083496 5.58120605 3.28166992 6.16241211 2.91162109 6.76123047 C-1.14236782 13.40799319 -4.80980109 20.20587322 -8.375 27.125 C-8.92027344 28.176875 -9.46554688 29.22875 -10.02734375 30.3125 C-11.35442608 32.87353607 -12.67858695 35.43603553 -14 38 C-15.32 36.68 -16.64 35.36 -18 34 C-16.46006264 28.62732964 -13.99116352 24.07716162 -11.25 19.25 C-10.80479004 18.4573877 -10.35958008 17.66477539 -9.90087891 16.84814453 C-6.70010389 11.17219638 -3.42627563 5.54332398 0 0 Z " fill="#5770E0" transform="translate(104,80)"/>
<path d="M0 0 C2.75 0.625 2.75 0.625 4.75 3.625 C4.09 3.625 3.43 3.625 2.75 3.625 C2.605625 4.429375 2.46125 5.23375 2.3125 6.0625 C1.75 8.625 1.75 8.625 0.75 9.625 C-0.91614608 9.66665365 -2.58385392 9.66665365 -4.25 9.625 C-4.58 9.625 -4.91 9.625 -5.25 9.625 C-5.52585938 10.20121094 -5.80171875 10.77742188 -6.0859375 11.37109375 C-7.59686845 14.29662113 -9.40654519 16.98210995 -11.2265625 19.72265625 C-12.48688814 21.70529422 -12.48688814 21.70529422 -12.25 24.625 C-12.91 24.955 -13.57 25.285 -14.25 25.625 C-14.94953723 27.60016396 -15.55984911 29.60727121 -16.125 31.625 C-17.76011956 37.20038888 -19.71322751 42.40302684 -22.25 47.625 C-22.91 47.625 -23.57 47.625 -24.25 47.625 C-14.57238942 2.80238258 -14.57238942 2.80238258 0 0 Z " fill="#526DF4" transform="translate(205.25,20.375)"/>
<path d="M0 0 C0.82145471 2.84942103 1.08514027 5.29137545 1 8.25 C0.94234102 12.59604558 1.37472703 16.70124832 2 21 C5.9509223 21.46833358 5.9509223 21.46833358 7.81640625 19.20703125 C8.39261719 18.41683594 8.96882812 17.62664062 9.5625 16.8125 C10.16320312 15.99523437 10.76390625 15.17796875 11.3828125 14.3359375 C13.03601209 11.94798254 14.60289512 9.54766184 16 7 C16.33 7.66 16.66 8.32 17 9 C17.99 8.67 18.98 8.34 20 8 C20.73323796 5.98491642 20.73323796 5.98491642 21 4 C21.66 4 22.32 4 23 4 C22.45594107 8.65082631 20.39852984 12.0398137 17.875 15.875 C17.2725647 16.80046631 17.2725647 16.80046631 16.65795898 17.74462891 C13.63661569 22.27873909 10.43175413 26.73449696 6 30 C5.34 30 4.68 30 4 30 C4.25 28.125 4.25 28.125 5 26 C6.9375 24.9375 6.9375 24.9375 9 24 C9.66 23.01 10.32 22.02 11 21 C7.88214887 21.64644661 7.88214887 21.64644661 7 24 C4.6875 24.25 4.6875 24.25 2 24 C-0.05370314 22.20361664 -0.90659241 20.73212812 -1.25317383 18.015625 C-1.33187726 15.62837308 -1.310353 13.2627156 -1.25 10.875 C-1.24484375 10.05128906 -1.2396875 9.22757813 -1.234375 8.37890625 C-1.15491071 2.30982143 -1.15491071 2.30982143 0 0 Z " fill="#596FD9" transform="translate(232,105)"/>
<path d="M0 0 C1.13732426 3.40401948 0.83989957 5.77456664 0.0625 9.25 C-0.13214844 10.14203125 -0.32679688 11.0340625 -0.52734375 11.953125 C-0.68332031 12.62859375 -0.83929688 13.3040625 -1 14 C-0.34 13.34 0.32 12.68 1 12 C1.33 13.32 1.66 14.64 2 16 C3.32 15.01 4.64 14.02 6 13 C4.46688715 18.51568187 1.81247556 23.02034852 -1.125 27.875 C-1.59292969 28.65875 -2.06085938 29.4425 -2.54296875 30.25 C-3.69018108 32.16982472 -4.8426007 34.08630561 -6 36 C-7.2077558 32.37673261 -6.54311128 31.35853631 -5 28 C-4.34 28 -3.68 28 -3 28 C-3 27.01 -3 26.02 -3 25 C-2.34 25 -1.68 25 -1 25 C-1.33 23.35 -1.66 21.7 -2 20 C-2.66 20 -3.32 20 -4 20 C-3.67 15.71 -3.34 11.42 -3 7 C-2.34 7 -1.68 7 -1 7 C-1.020625 6.030625 -1.04125 5.06125 -1.0625 4.0625 C-1 1 -1 1 0 0 Z M-3 16 C-2 18 -2 18 -2 18 Z " fill="#5871E2" transform="translate(242,56)"/>
<path d="M0 0 C0.66 0.99 1.32 1.98 2 3 C1.319375 3.556875 1.319375 3.556875 0.625 4.125 C-1.47778074 6.55128547 -2.02553845 8.95480766 -3 12 C-3.7115625 13.11375 -3.7115625 13.11375 -4.4375 14.25 C-6.29607688 17.5210953 -7.15394357 20.74548626 -8.171875 24.3515625 C-9.43527002 28.39204279 -11.18340935 32.18239326 -13 36 C-13.66 36 -14.32 36 -15 36 C-12.90182545 26.28213892 -9.62705719 17.22424293 -6 8 C-5.67128906 7.03964844 -5.34257812 6.07929687 -5.00390625 5.08984375 C-4.67261719 4.40019531 -4.34132812 3.71054687 -4 3 C-3.01 2.67 -2.02 2.34 -1 2 C-0.67 1.34 -0.34 0.68 0 0 Z " fill="#6479E2" transform="translate(196,32)"/>
<path d="M0 0 C0.33 1.32 0.66 2.64 1 4 C0.34 4 -0.32 4 -1 4 C-1 5.32 -1 6.64 -1 8 C-0.34 8.33 0.32 8.66 1 9 C-0.26363473 10.96298601 -1.5361628 12.92024934 -2.8125 14.875 C-3.87404297 16.51082031 -3.87404297 16.51082031 -4.95703125 18.1796875 C-7 21 -7 21 -10 23 C-9.67 21.35 -9.34 19.7 -9 18 C-10.65 18.66 -12.3 19.32 -14 20 C-13.64808594 19.53851563 -13.29617187 19.07703125 -12.93359375 18.6015625 C-5.88924668 9.66915148 -5.88924668 9.66915148 0 0 Z " fill="#5970DE" transform="translate(171,103)"/>
<path d="M0 0 C1.04449911 3.13349732 0.93423645 3.98968256 0 7 C-0.66 7 -1.32 7 -2 7 C-2.12375 8.11375 -2.2475 9.2275 -2.375 10.375 C-3 14 -3 14 -5 16 C-5.99 16 -6.98 16 -8 16 C-9.70532323 17.94009522 -9.70532323 17.94009522 -11 20 C-10.40534708 15.59296113 -9.31445998 11.7985193 -7.625 7.6875 C-7.20476562 6.63949219 -6.78453125 5.59148438 -6.3515625 4.51171875 C-5 2 -5 2 -2 1 C-1.34 1.33 -0.68 1.66 0 2 C0 1.34 0 0.68 0 0 Z " fill="#5071FB" transform="translate(249,30)"/>
<path d="M0 0 C-0.417313 4.92784505 -2.54985927 6.9777145 -6.0625 10.3125 C-6.98160156 11.19550781 -7.90070313 12.07851562 -8.84765625 12.98828125 C-9.55792969 13.65214844 -10.26820313 14.31601563 -11 15 C-11.33 14.34 -11.66 13.68 -12 13 C-11.67 12.34 -11.34 11.68 -11 11 C-12.65 11.66 -14.3 12.32 -16 13 C-5.15384615 0 -5.15384615 0 0 0 Z " fill="#536DDD" transform="translate(319,81)"/>
<path d="M0 0 C1.6875 2 1.6875 2 1.6875 4 C-0.10408489 4.02696365 -1.89578473 4.04637917 -3.6875 4.0625 C-4.68523438 4.07410156 -5.68296875 4.08570312 -6.7109375 4.09765625 C-9.3125 4 -9.3125 4 -11.3125 3 C-11.3125 2.01 -11.3125 1.02 -11.3125 0 C-11.9725 0 -12.6325 0 -13.3125 0 C-13.6425 0.66 -13.9725 1.32 -14.3125 2 C-14.9725 1.34 -15.6325 0.68 -16.3125 0 C-14.47952005 -2.34214105 -13.34785881 -2.99000729 -10.4375 -3.8125 C-5.82818098 -4.08905914 -3.46263509 -2.99471143 0 0 Z " fill="#5071FC" transform="translate(37.3125,119)"/>
<path d="M0 0 C0.99 0.33 1.98 0.66 3 1 C-1.29 10.57 -5.58 20.14 -10 30 C-11.10191901 25.59232396 -10.58706842 24.1077065 -9 20 C-8.34 20 -7.68 20 -7 20 C-6.67 18.02 -6.34 16.04 -6 14 C-7.32 14 -8.64 14 -10 14 C-9.34 12.02 -8.68 10.04 -8 8 C-7.34 8.66 -6.68 9.32 -6 10 C-5.01 10 -4.02 10 -3 10 C-3 9.01 -3 8.02 -3 7 C-2.34 7 -1.68 7 -1 7 C-0.67 4.69 -0.34 2.38 0 0 Z " fill="#586FDD" transform="translate(140,76)"/>
<path d="M0 0 C0.99 0 1.98 0 3 0 C2.23754579 4.81600823 0.58720144 9.24615702 -1.0625 13.8125 C-1.34416016 14.60076172 -1.62582031 15.38902344 -1.91601562 16.20117188 C-2.60758538 18.13522289 -3.30337278 20.06776488 -4 22 C-4.33 22 -4.66 22 -5 22 C-5.05379226 19.04142591 -5.09357093 16.08382279 -5.125 13.125 C-5.14175781 12.28324219 -5.15851563 11.44148438 -5.17578125 10.57421875 C-5.18222656 9.76855469 -5.18867187 8.96289062 -5.1953125 8.1328125 C-5.21102295 7.01737061 -5.21102295 7.01737061 -5.22705078 5.87939453 C-5 4 -5 4 -3 2 C-2.67 3.32 -2.34 4.64 -2 6 C-1.34 4.02 -0.68 2.04 0 0 Z " fill="#5872E5" transform="translate(124,112)"/>
<path d="M0 0 C1.32 0 2.64 0 4 0 C5 1.33333333 6 2.66666667 7 4 C8.32 4 9.64 4 11 4 C11.66 4.33 12.32 4.66 13 5 C12.34 6.65 11.68 8.3 11 10 C8 10 8 10 6 9 C6 8.34 6 7.68 6 7 C4.35 7 2.7 7 1 7 C0.67 4.69 0.34 2.38 0 0 Z " fill="#5172FB" transform="translate(375,65)"/>
<path d="M0 0 C3.30381623 3.30381623 2.85717567 7.48142317 3 12 C2.84330212 16.39161062 2.47197426 20.75049242 2.0625 25.125 C1.96259766 26.27226563 1.86269531 27.41953125 1.75976562 28.6015625 C1.51473774 31.4018812 1.26133133 34.20116387 1 37 C0.67 37 0.34 37 0 37 C0 24.79 0 12.58 0 0 Z " fill="#556FD7" transform="translate(87,56)"/>
<path d="M0 0 C5.51020408 -0.36734694 5.51020408 -0.36734694 7.625 1.21875 C9.28341732 3.36715426 9.68718891 5.03200266 10.1875 7.6875 C10.34605469 8.49574219 10.50460938 9.30398437 10.66796875 10.13671875 C10.77753906 10.75160156 10.88710937 11.36648437 11 12 C12.29854721 10.92492371 13.58858361 9.83956264 14.875 8.75 C15.59429687 8.14671875 16.31359375 7.5434375 17.0546875 6.921875 C18.97052118 5.02912366 19.96449045 3.46342273 21 1 C21.1875 3.3125 21.1875 3.3125 21 6 C20.02149805 7.02104551 19.02019573 8.0206121 18 9 C17.835 9.845625 17.67 10.69125 17.5 11.5625 C17 14 17 14 14 16 C14 15.01 14 14.02 14 13 C12.68 13.33 11.36 13.66 10 14 C9.67128906 12.84371094 9.67128906 12.84371094 9.3359375 11.6640625 C8.38249919 8.64871694 7.4134216 5.83112629 6 3 C2.94704146 1.16884601 2.94704146 1.16884601 0 1 C0 0.67 0 0.34 0 0 Z " fill="#5B71DC" transform="translate(204,86)"/>
<path d="M0 0 C0.33 0.99 0.66 1.98 1 3 C1.99 3.33 2.98 3.66 4 4 C4 5.32 4 6.64 4 8 C4.86625 7.5359375 4.86625 7.5359375 5.75 7.0625 C7.84294184 6.07416636 9.74535275 5.4831387 12 5 C10.71076872 8.86769385 9.38797758 9.74134828 6 12 C5.34 12 4.68 12 4 12 C3.67 12.99 3.34 13.98 3 15 C1.875 8.375 1.875 8.375 3 5 C-0.11785113 5.64644661 -0.11785113 5.64644661 -1 8 C-1.66 8 -2.32 8 -3 8 C-3.33 7.01 -3.66 6.02 -4 5 C-2.0625 2.3125 -2.0625 2.3125 0 0 Z " fill="#4B68F0" transform="translate(286,90)"/>
<path d="M0 0 C0 3 0 3 -2 6 C-1.01 5.67 -0.02 5.34 1 5 C-0.68673918 9.49797113 -2.81673892 13.72886302 -5 18 C-5.33 18 -5.66 18 -6 18 C-6 16.02 -6 14.04 -6 12 C-6.66 12 -7.32 12 -8 12 C-6.49087042 7.01987239 -3.44338151 3.75740058 0 0 Z " fill="#576FE5" transform="translate(197,92)"/>
<path d="M0 0 C3 0.125 3 0.125 4 1.125 C4.95912192 8.41432662 1.30640005 15.78028639 -2 22.125 C-3.125 19.8125 -3.125 19.8125 -4 17.125 C-3.34 16.135 -2.68 15.145 -2 14.125 C-1.34 14.125 -0.68 14.125 0 14.125 C-0.04125 13.01125 -0.0825 11.8975 -0.125 10.75 C0 7.125 0 7.125 2 5.125 C2 4.135 2 3.145 2 2.125 C-0.47266765 2.46944881 -0.47266765 2.46944881 -3 3.125 C-3.33 3.785 -3.66 4.445 -4 5.125 C-4.66 5.125 -5.32 5.125 -6 5.125 C-3.59259259 0.14969136 -3.59259259 0.14969136 0 0 Z " fill="#5D72DB" transform="translate(271,73.875)"/>
<path d="M0 0 C0.33 0 0.66 0 1 0 C0.22095672 10.55808656 0.22095672 10.55808656 -2 15 C-0.68 15 0.64 15 2 15 C2 14.34 2 13.68 2 13 C2.99 12.67 3.98 12.34 5 12 C3.71792641 14.86001033 2.50848764 17.07039412 0 19 C-1.32 19 -2.64 19 -4 19 C-4.62621031 12.11168659 -2.35806067 6.41097745 0 0 Z " fill="#5A71D9" transform="translate(283,175)"/>
<path d="M0 0 C2.5 2.3125 2.5 2.3125 5 5 C5 5.99 5 6.98 5 8 C-0.47332932 9.46845421 -3.11922548 8.44038726 -8 6 C-4.25 4.875 -4.25 4.875 -2 6 C-2 5.34 -2 4.68 -2 4 C-1.34 3.34 -0.68 2.68 0 2 C0 1.34 0 0.68 0 0 Z " fill="#566EE0" transform="translate(44,123)"/>
<path d="M0 0 C1.15941038 3.47823115 0.70820884 5.45895578 0 9 C-1.32 9 -2.64 9 -4 9 C-4.33 10.98 -4.66 12.96 -5 15 C-5.66 15 -6.32 15 -7 15 C-7.33 16.32 -7.66 17.64 -8 19 C-8.99 19 -9.98 19 -11 19 C-9.41467191 14.44435939 -7.00996919 10.68524231 -4.375 6.6875 C-3.95476562 6.04232422 -3.53453125 5.39714844 -3.1015625 4.73242188 C-2.07161759 3.15239276 -1.03634372 1.57583953 0 0 Z " fill="#586EE0" transform="translate(331,94)"/>
<path d="M0 0 C6.0546875 -0.1953125 6.0546875 -0.1953125 8 0 C8.66 0.66 9.32 1.32 10 2 C9.625 5.625 9.625 5.625 9 9 C8.67 9 8.34 9 8 9 C8 6.69 8 4.38 8 2 C5.03 1.505 5.03 1.505 2 1 C1.34 2.65 0.68 4.3 0 6 C0.66 6.33 1.32 6.66 2 7 C-0.64 8.65 -3.28 10.3 -6 12 C-4 8 -2 4 0 0 Z " fill="#576FDC" transform="translate(293,78)"/>
<path d="M0 0 C0.33 0 0.66 0 1 0 C1.3690205 12.66970387 1.3690205 12.66970387 -1 18 C-1.33 17.01 -1.66 16.02 -2 15 C-2.99 15.495 -2.99 15.495 -4 16 C-4.65555119 18.52733235 -4.65555119 18.52733235 -5 21 C-5.66 21 -6.32 21 -7 21 C-6.34 17.37 -5.68 13.74 -5 10 C-4.67 11.32 -4.34 12.64 -4 14 C-3.34 13.67 -2.68 13.34 -2 13 C-1.56893307 10.21663762 -1.56893307 10.21663762 -1.4375 7 C-1.09637046 1.09637046 -1.09637046 1.09637046 0 0 Z " fill="#556ED6" transform="translate(216,31)"/>
<path d="M0 0 C0.33 0 0.66 0 1 0 C0.8583467 2.87526069 0.71181468 5.75013536 0.5625 8.625 C0.50352539 9.83736328 0.50352539 9.83736328 0.44335938 11.07421875 C0.21203918 15.45150865 -0.16920917 19.68547281 -1 24 C-1.66 24 -2.32 24 -3 24 C-3.40735653 15.49077472 -2.43092956 8.1609778 0 0 Z " fill="#6C86ED" transform="translate(80,72)"/>
<path d="M0 0 C0.66 0.33 1.32 0.66 2 1 C-0.90691228 3.4224269 -3.6310249 5.31551245 -7 7 C-7.474375 7.474375 -7.94875 7.94875 -8.4375 8.4375 C-10.46019563 10.46019563 -12.4293203 11.7460099 -15 13 C-17.16015625 12.578125 -17.16015625 12.578125 -19 12 C-5.67902665 2.34994206 -5.67902665 2.34994206 0 0 Z " fill="#576EDD" transform="translate(401,87)"/>
<path d="M0 0 C3.15140423 0.34069235 4.60781561 0.58076841 6.8125 2.9375 C8 5 8 5 8 7 C6 7 6 7 4.375 5.5 C3.92125 5.005 3.4675 4.51 3 4 C2.67 4.99 2.34 5.98 2 7 C1.34 6.67 0.68 6.34 0 6 C-2.09821215 6.39938767 -2.09821215 6.39938767 -4 7 C-2.68 4.69 -1.36 2.38 0 0 Z " fill="#5269E4" transform="translate(115,63)"/>
<path d="M0 0 C1.32 0.33 2.64 0.66 4 1 C-9.93548387 14 -9.93548387 14 -15 14 C-15 13.34 -15 12.68 -15 12 C-14.01 12 -13.02 12 -12 12 C-12 11.34 -12 10.68 -12 10 C-10.35 9.34 -8.7 8.68 -7 8 C-7 7.34 -7 6.68 -7 6 C-6.01 6 -5.02 6 -4 6 C-4 5.34 -4 4.68 -4 4 C-3.01 4 -2.02 4 -1 4 C-0.67 2.68 -0.34 1.36 0 0 Z " fill="#566EDF" transform="translate(44,89)"/>
<path d="M0 0 C4.875 0.875 4.875 0.875 6 2 C6.30813578 4.92728993 6.43574835 6.42560445 4.625 8.8125 C3 10 3 10 1 10 C1.33 8.68 1.66 7.36 2 6 C2.66 6 3.32 6 4 6 C4 4.68 4 3.36 4 2 C-0.06024321 4.03802135 -0.06024321 4.03802135 -2 8 C-4.0625 9.1875 -4.0625 9.1875 -6 10 C-4.34832443 6.4213696 -2.21713508 3.25179812 0 0 Z " fill="#576ED3" transform="translate(155,44)"/>
<path d="M0 0 C0.66 0.99 1.32 1.98 2 3 C1.54625 3.37125 1.0925 3.7425 0.625 4.125 C-1.47778074 6.55128547 -2.02553845 8.95480766 -3 12 C-4.49402953 14.73905415 -5.79424117 16.79424117 -8 19 C-7.61167075 13.09471732 -6.83947527 8.24210819 -4 3 C-3.01 2.67 -2.02 2.34 -1 2 C-0.67 1.34 -0.34 0.68 0 0 Z " fill="#788DEF" transform="translate(196,32)"/>
<path d="M0 0 C1.00693162 3.12179408 0.97289724 4.98969669 0.00390625 8.109375 C-0.22490234 8.86347656 -0.45371094 9.61757812 -0.68945312 10.39453125 C-0.93630859 11.17183594 -1.18316406 11.94914063 -1.4375 12.75 C-1.68048828 13.54277344 -1.92347656 14.33554688 -2.17382812 15.15234375 C-2.77354195 17.10435346 -3.38558121 19.05256883 -4 21 C-6.2259998 12.57039419 -4.15098191 7.36799288 0 0 Z " fill="#576ED8" transform="translate(290,125)"/>
<path d="M0 0 C0.66 0.66 1.32 1.32 2 2 C1.34 3.98 0.68 5.96 0 8 C-0.66 8 -1.32 8 -2 8 C-2 6.68 -2 5.36 -2 4 C-5.21524305 5.40844718 -7.32183868 7.10344786 -9.75 9.625 C-10.36359375 10.25664062 -10.9771875 10.88828125 -11.609375 11.5390625 C-12.06828125 12.02117188 -12.5271875 12.50328125 -13 13 C-13 10 -13 10 -11.42578125 8.02734375 C-10.72839844 7.33769531 -10.03101563 6.64804688 -9.3125 5.9375 C-8.62800781 5.24527344 -7.94351562 4.55304687 -7.23828125 3.83984375 C-4.90524367 1.92211129 -2.84580411 0.96189176 0 0 Z " fill="#556DD3" transform="translate(401,5)"/>
<path d="M0 0 C0.66 0.33 1.32 0.66 2 1 C0.90073597 2.77388086 -0.20460502 4.54399684 -1.3125 6.3125 C-1.92738281 7.29863281 -2.54226562 8.28476563 -3.17578125 9.30078125 C-4.66324661 11.50172035 -6.0403386 13.23328988 -8 15 C-8 14.01 -8 13.02 -8 12 C-8.66 11.67 -9.32 11.34 -10 11 C-8.68 10.34 -7.36 9.68 -6 9 C-6.33 7.35 -6.66 5.7 -7 4 C-5.5459375 3.566875 -5.5459375 3.566875 -4.0625 3.125 C-0.89335797 2.35785318 -0.89335797 2.35785318 0 0 Z " fill="#546EE3" transform="translate(214,104)"/>
<path d="M0 0 C0.33 0 0.66 0 1 0 C1.59171284 6.80469763 -0.08866093 13.30515609 -4.37890625 18.75 C-5.75 20.125 -5.75 20.125 -8 22 C-6.81841184 17.27364736 -5.20839894 13.30858304 -2.953125 9 C-1.55938136 6.07542318 -0.78457019 3.13828076 0 0 Z " fill="#6B83E9" transform="translate(206,93)"/>
<path d="M0 0 C0.33 0.66 0.66 1.32 1 2 C1.66 2.33 2.32 2.66 3 3 C2.67 3.33 2.34 3.66 2 4 C1.76572222 6.01594582 1.58663876 8.038474 1.4375 10.0625 C1.31181641 11.71958984 1.31181641 11.71958984 1.18359375 13.41015625 C1.12300781 14.26480469 1.06242188 15.11945312 1 16 C0.01 16.33 -0.98 16.66 -2 17 C-1.85941524 14.54126232 -1.71277001 12.08314825 -1.5625 9.625 C-1.52318359 8.92632812 -1.48386719 8.22765625 -1.44335938 7.5078125 C-1.11328125 2.2265625 -1.11328125 2.2265625 0 0 Z " fill="#4F6EFA" transform="translate(214,28)"/>
<path d="M0 0 C0.66 0 1.32 0 2 0 C1.67 3.3 1.34 6.6 1 10 C-0.65 10.33 -2.3 10.66 -4 11 C-4.33 9.35 -4.66 7.7 -5 6 C-4.01 6 -3.02 6 -2 6 C-1.855625 5.195625 -1.71125 4.39125 -1.5625 3.5625 C-1 1 -1 1 0 0 Z " fill="#4E6BFA" transform="translate(129,97)"/>
<path d="M0 0 C0 3 0 3 -1.25 5.0625 C-3.31770187 8.53328527 -4.58884688 12.0919187 -5.9375 15.890625 C-7 18 -7 18 -10 19 C-8.52509042 15.16381691 -6.82866184 11.49268196 -5 7.8125 C-4.484375 6.76707031 -3.96875 5.72164062 -3.4375 4.64453125 C-2 2 -2 2 0 0 Z " fill="#5E72D6" transform="translate(247,26)"/>
<path d="M0 0 C0.66 0 1.32 0 2 0 C2.36637589 6.35051546 2.36637589 6.35051546 0.625 9.4375 C-1 11 -1 11 -3 11 C-3.33 12.65 -3.66 14.3 -4 16 C-5.35304209 11.94087374 -4.15216503 10.22850409 -2.5625 6.3125 C-2.08941406 5.13300781 -1.61632812 3.95351563 -1.12890625 2.73828125 C-0.75636719 1.83464844 -0.38382813 0.93101563 0 0 Z " fill="#6683FB" transform="translate(243,34)"/>
<path d="M0 0 C0.66 1.32 1.32 2.64 2 4 C1.60167969 4.43570313 1.20335937 4.87140625 0.79296875 5.3203125 C-2.48936831 9.00994686 -4.99399746 12.43077198 -7 17 C-7.66 17 -8.32 17 -9 17 C-7.51481201 12.95698825 -5.57122002 9.38853744 -3.375 5.6875 C-2.74335938 4.61886719 -2.11171875 3.55023438 -1.4609375 2.44921875 C-0.97882813 1.64097656 -0.49671875 0.83273438 0 0 Z " fill="#5670DB" transform="translate(306,134)"/>
<path d="M0 0 C0.99 0.33 1.98 0.66 3 1 C2.67 3.31 2.34 5.62 2 8 C-0.31 7.67 -2.62 7.34 -5 7 C-4.67 5.35 -4.34 3.7 -4 2 C-3.01 1.67 -2.02 1.34 -1 1 C-0.67 0.67 -0.34 0.34 0 0 Z " fill="#5474F9" transform="translate(295,98)"/>
<path d="M0 0 C0 0.33 0 0.66 0 1 C-4.455 1.495 -4.455 1.495 -9 2 C-9 2.99 -9 3.98 -9 5 C-8.34 5.33 -7.68 5.66 -7 6 C-9 7 -9 7 -11.375 6.9375 C-14.16893272 7.00402221 -15.62529681 7.59276848 -18 9 C-16.35697047 7.31002677 -14.68528688 5.64783606 -13 4 C-12.236875 3.236875 -11.47375 2.47375 -10.6875 1.6875 C-6.91622985 -0.68050684 -4.39780306 -0.29815614 0 0 Z " fill="#5A6FDF" transform="translate(55,62)"/>
<path d="M0 0 C0.33 0 0.66 0 1 0 C0.67 2.31 0.34 4.62 0 7 C-0.99 7.33 -1.98 7.66 -3 8 C-3.144375 8.763125 -3.28875 9.52625 -3.4375 10.3125 C-4 13 -4 13 -5 16 C-5.99 16.33 -6.98 16.66 -8 17 C-6.3341708 10.83643195 -3.12194714 5.51740344 0 0 Z " fill="#536CDD" transform="translate(296,151)"/>
<path d="M0 0 C1 3 1 3 1 7 C-0.8125 8.0625 -0.8125 8.0625 -3 9 C-3.99 8.67 -4.98 8.34 -6 8 C-5.34 7.01 -4.68 6.02 -4 5 C-4 4.01 -4 3.02 -4 2 C-2.68 1.34 -1.36 0.68 0 0 Z " fill="#5A77FA" transform="translate(285,136)"/>
<path d="M0 0 C1.21386936 3.64160808 0.6674695 4.33165469 -0.9375 7.6875 C-1.31777344 8.49574219 -1.69804687 9.30398437 -2.08984375 10.13671875 C-2.39019531 10.75160156 -2.69054687 11.36648437 -3 12 C-4 9 -4 9 -3 6 C-3.99 5.67 -4.98 5.34 -6 5 C-6 4.34 -6 3.68 -6 3 C-4.02 2.01 -2.04 1.02 0 0 Z " fill="#536AE9" transform="translate(257,48)"/>
<path d="M0 0 C1.32 1.32 2.64 2.64 4 4 C2.35 5.65 0.7 7.3 -1 9 C-3 6 -3 6 -3 3 C-1.5 1.3125 -1.5 1.3125 0 0 Z " fill="#546EE3" transform="translate(278,120)"/>
<path d="M0 0 C0.66 0.33 1.32 0.66 2 1 C0.69370867 5.06401747 -1.74994524 6.17301801 -5.3125 8.05078125 C-7.20596038 9.11585271 -8.59431882 10.34625743 -10 12 C-10.66 11.67 -11.32 11.34 -12 11 C-8.04 7.37 -4.08 3.74 0 0 Z " fill="#586EDB" transform="translate(35,71)"/>
<path d="M0 0 C0 3.01490557 -0.51952735 4.86864114 -1.5 7.6875 C-1.91765625 8.89986328 -1.91765625 8.89986328 -2.34375 10.13671875 C-2.5603125 10.75160156 -2.776875 11.36648437 -3 12 C-4.32 11.34 -5.64 10.68 -7 10 C-5.33248852 6.05860922 -2.77289351 3.2107188 0 0 Z " fill="#5670E8" transform="translate(385,19)"/>
<path d="M0 0 C0.103125 0.639375 0.20625 1.27875 0.3125 1.9375 C0.539375 2.618125 0.76625 3.29875 1 4 C1.99 4.33 2.98 4.66 4 5 C3.01 6.485 3.01 6.485 2 8 C1.01 8 0.02 8 -1 8 C-1 8.66 -1 9.32 -1 10 C-1.66 9.67 -2.32 9.34 -3 9 C-2.69181644 7.68647977 -2.37832335 6.37420428 -2.0625 5.0625 C-1.88847656 4.33160156 -1.71445313 3.60070312 -1.53515625 2.84765625 C-1 1 -1 1 0 0 Z " fill="#5772E9" transform="translate(104,80)"/>
<path d="M0 0 C0.66 0.33 1.32 0.66 2 1 C1.34 3.31 0.68 5.62 0 8 C-1.32 8.33 -2.64 8.66 -4 9 C-3.71848913 7.68528432 -3.42446661 6.37324233 -3.125 5.0625 C-2.96257812 4.33160156 -2.80015625 3.60070312 -2.6328125 2.84765625 C-2 1 -2 1 0 0 Z " fill="#5372F6" transform="translate(248,115)"/>
<path d="M0 0 C1.65 0.33 3.3 0.66 5 1 C4.01 1.66 3.02 2.32 2 3 C-0.45664952 4.91738499 -2.79582183 6.79582183 -5 9 C-5.33 8.01 -5.66 7.02 -6 6 C-5.67 5.34 -5.34 4.68 -5 4 C-4.01 4 -3.02 4 -2 4 C-1.34 2.68 -0.68 1.36 0 0 Z " fill="#576FF1" transform="translate(269,75)"/>
<path d="M0 0 C0.66 0.33 1.32 0.66 2 1 C1.57074219 1.37769531 1.14148438 1.75539063 0.69921875 2.14453125 C-1.42212963 4.46094615 -2.71920396 6.91405193 -4.1875 9.6875 C-4.71730469 10.68136719 -5.24710938 11.67523438 -5.79296875 12.69921875 C-6.19128906 13.45847656 -6.58960938 14.21773437 -7 15 C-7.7109375 13.32421875 -7.7109375 13.32421875 -8 11 C-6.6015625 8.45703125 -6.6015625 8.45703125 -4.625 5.8125 C-3.97789062 4.93207031 -3.33078125 4.05164063 -2.6640625 3.14453125 C-1 1 -1 1 0 0 Z " fill="#6073DA" transform="translate(201,22)"/>
<path d="M0 0 C1.32 0.33 2.64 0.66 4 1 C4 1.66 4 2.32 4 3 C7.01031744 3.93423645 7.86650268 4.04449911 11 3 C11 4.65 11 6.3 11 8 C6.40378078 6.5129879 3.53027653 4.20187872 0 1 C0 0.67 0 0.34 0 0 Z " fill="#4F6BE0" transform="translate(377,71)"/>
<path d="M0 0 C0.33 0.66 0.66 1.32 1 2 C0.67 2.99 0.34 3.98 0 5 C0.5775 5.12375 1.155 5.2475 1.75 5.375 C4.02335767 6.00648824 5.9253529 6.88858191 8 8 C5.24805136 8.76443018 3.51320029 9.1568112 0.75 8.3125 C-1 7 -1 7 -1.875 5.0625 C-2 3 -2 3 0 0 Z " fill="#5470DA" transform="translate(194,115)"/>
<path d="M0 0 C1 2 1 2 0.1875 4.5 C-1 7 -1 7 -3 9 C-3.66 9.99 -4.32 10.98 -5 12 C-5.75 10.375 -5.75 10.375 -6 8 C-4.24107963 4.96737867 -2.47809712 2.47809712 0 0 Z " fill="#5172FA" transform="translate(99,93)"/>
<path d="M0 0 C0.66 0.33 1.32 0.66 2 1 C2.25 3.3125 2.25 3.3125 2 6 C-0.04424538 7.97610386 -1.1176825 9 -4 9 C-3.71125 8.443125 -3.4225 7.88625 -3.125 7.3125 C-1.9586747 4.91505355 -0.9660119 2.48403061 0 0 Z " fill="#4F66F0" transform="translate(199,89)"/>
<path d="M0 0 C0.66 0.99 1.32 1.98 2 3 C1.25 5.625 1.25 5.625 0 8 C-0.99 8.495 -0.99 8.495 -2 9 C-2.6875 6.1875 -2.6875 6.1875 -3 3 C-1.5625 1.125 -1.5625 1.125 0 0 Z " fill="#4D66F3" transform="translate(153,81)"/>
<path d="M0 0 C1.65 0 3.3 0 5 0 C3.7508258 3.45925163 2.32472205 6.14693203 0 9 C-1.125 3.375 -1.125 3.375 0 0 Z " fill="#526DE9" transform="translate(248,60)"/>
<path d="M0 0 C0.66 0.33 1.32 0.66 2 1 C1.54625 1.4125 1.0925 1.825 0.625 2.25 C-1.0986372 3.90721867 -1.0986372 3.90721867 -1.875 6.0625 C-3.41329016 8.71177751 -5.15111923 9.10035344 -8 10 C-6.34908222 5.70761377 -3.26245434 3.1206085 0 0 Z " fill="#576CDA" transform="translate(369,109)"/>
<path d="M0 0 C1.32 0.99 2.64 1.98 4 3 C2.87548273 5.9719385 1.77706209 8.33440687 0 11 C0 9.02 0 7.04 0 5 C-0.66 5 -1.32 5 -2 5 C-1.34 3.35 -0.68 1.7 0 0 Z " fill="#5B72D9" transform="translate(191,99)"/>
<path d="M0 0 C0.66 0.99 1.32 1.98 2 3 C0.02 5.97 -1.96 8.94 -4 12 C-4.66 10.68 -5.32 9.36 -6 8 C-4.68 7.67 -3.36 7.34 -2 7 C-1.855625 6.401875 -1.71125 5.80375 -1.5625 5.1875 C-1.1127561 3.43849596 -0.57107659 1.71322977 0 0 Z " fill="#576FE0" transform="translate(361,73)"/>
<path d="M0 0 C0.33 1.65 0.66 3.3 1 5 C-0.875 5.625 -0.875 5.625 -3 6 C-3.66 5.34 -4.32 4.68 -5 4 C-5 3.01 -5 2.02 -5 1 C-2 0 -2 0 0 0 Z " fill="#4C66F6" transform="translate(199,71)"/>
<path d="M0 0 C0.33 1.32 0.66 2.64 1 4 C0.01 4.33 -0.98 4.66 -2 5 C-2 4.34 -2 3.68 -2 3 C-3.98 3.99 -5.96 4.98 -8 6 C-8.33 4.68 -8.66 3.36 -9 2 C-2.25 0 -2.25 0 0 0 Z " fill="#4C66F8" transform="translate(285,143)"/>
<path d="M0 0 C1.9375 0.3125 1.9375 0.3125 4 1 C4.33 1.99 4.66 2.98 5 4 C4.67 4.66 4.34 5.32 4 6 C3.34 6 2.68 6 2 6 C0 3 0 3 0 0 Z M-2 5 C-1.34 5 -0.68 5 0 5 C0 5.66 0 6.32 0 7 C-0.99 6.67 -1.98 6.34 -3 6 C-2.67 5.67 -2.34 5.34 -2 5 Z " fill="#4968F6" transform="translate(81,123)"/>
<path d="M0 0 C1.65 1.32 3.3 2.64 5 4 C4.67 5.65 4.34 7.3 4 9 C3.01 9 2.02 9 1 9 C1.020625 8.071875 1.04125 7.14375 1.0625 6.1875 C1.15769604 2.97713989 1.15769604 2.97713989 0 0 Z " fill="#5B70E4" transform="translate(417,85)"/>
<path d="M0 0 C0.66 0 1.32 0 2 0 C0.9318153 5.11365014 -0.23107476 10.07227969 -2 15 C-2.33 15 -2.66 15 -3 15 C-3.25 8.375 -3.25 8.375 -1 5 C-0.61500109 3.34450469 -0.27206865 1.6777567 0 0 Z " fill="#566EDA" transform="translate(247,37)"/>
<path d="M0 0 C0.66 0.33 1.32 0.66 2 1 C1.34 2.32 0.68 3.64 0 5 C-0.99 5 -1.98 5 -3 5 C-3 5.66 -3 6.32 -3 7 C-4.65 7.66 -6.3 8.32 -8 9 C-5.89851796 5.01824456 -3.63094642 2.64960955 0 0 Z " fill="#587AFC" transform="translate(40,90)"/>
<path d="M0 0 C0.99 0.33 1.98 0.66 3 1 C2.02501855 2.5027237 1.04490611 4.00211963 0.0625 5.5 C-0.48277344 6.3353125 -1.02804687 7.170625 -1.58984375 8.03125 C-2.05519531 8.6809375 -2.52054687 9.330625 -3 10 C-3.33 10 -3.66 10 -4 10 C-4.08226668 6.95613276 -3.97608217 4.92824652 -3 2 C-2.01 2 -1.02 2 0 2 C0 1.34 0 0.68 0 0 Z " fill="#576CDE" transform="translate(367,65)"/>
<path d="M0 0 C1.9375 0.375 1.9375 0.375 4 1 C4.33 1.66 4.66 2.32 5 3 C7.02463255 3.65213292 7.02463255 3.65213292 9 4 C9 4.66 9 5.32 9 6 C9.66 6.33 10.32 6.66 11 7 C7.98342209 6.85969405 5.76158727 6.70648535 3.48828125 4.59765625 C2.26743934 3.11095765 1.12753478 1.55865102 0 0 Z " fill="#566CDC" transform="translate(259,156)"/>
<path d="M0 0 C1.07061422 4.2824569 1.05807526 5.27586382 -1 9 C-2.98 9.99 -2.98 9.99 -5 11 C-3.35 7.37 -1.7 3.74 0 0 Z " fill="#556FE8" transform="translate(290,125)"/>
<path d="M0 0 C0.33 0.99 0.66 1.98 1 3 C1.33 2.34 1.66 1.68 2 1 C3.32 1.66 4.64 2.32 6 3 C5.67 3.99 5.34 4.98 5 6 C3.35 5.67 1.7 5.34 0 5 C0 3.35 0 1.7 0 0 Z " fill="#4A64F7" transform="translate(225,128)"/>
<path d="M0 0 C0.66 1.32 1.32 2.64 2 4 C2.66 4 3.32 4 4 4 C4 4.66 4 5.32 4 6 C0.22454612 4.90931332 -2.47043472 4.0916909 -5 1 C-2 0 -2 0 0 0 Z " fill="#5270E1" transform="translate(26,119)"/>
<path d="M0 0 C0.66 0.33 1.32 0.66 2 1 C1.67 3.97 1.34 6.94 1 10 C0.34 10 -0.32 10 -1 10 C-1.125 3.375 -1.125 3.375 0 0 Z " fill="#6B88E9" transform="translate(76,97)"/>
<path d="M0 0 C1 3 1 3 1 7 C0.34 7 -0.32 7 -1 7 C-1.33 7.66 -1.66 8.32 -2 9 C-2.99 8.67 -3.98 8.34 -5 8 C-3.35 5.36 -1.7 2.72 0 0 Z " fill="#5A70E1" transform="translate(110,70)"/>
<path d="M0 0 C0 3.41321235 -0.66867466 4.39472885 -2.5 7.1875 C-2.9640625 7.90292969 -3.428125 8.61835937 -3.90625 9.35546875 C-4.2671875 9.89816406 -4.628125 10.44085938 -5 11 C-5.33 9.68 -5.66 8.36 -6 7 C-5.34 7 -4.68 7 -4 7 C-4 5.68 -4 4.36 -4 3 C-2 1.25 -2 1.25 0 0 Z " fill="#5B6EDE" transform="translate(393,25)"/>
<path d="M0 0 C1.32 0 2.64 0 4 0 C3.42655063 2.86724686 3.1385485 3.8614515 1 6 C0.34 4.35 -0.32 2.7 -1 1 C-0.67 0.67 -0.34 0.34 0 0 Z " fill="#4C6AED" transform="translate(187,109)"/>
<path d="M0 0 C0.33 0.66 0.66 1.32 1 2 C0.67 2.66 0.34 3.32 0 4 C0.66 4 1.32 4 2 4 C1.34 5.32 0.68 6.64 0 8 C-0.33 7.01 -0.66 6.02 -1 5 C-1.99 4.67 -2.98 4.34 -4 4 C-2.68 2.68 -1.36 1.36 0 0 Z " fill="#566DDE" transform="translate(302,94)"/>
<path d="M0 0 C0.66 0 1.32 0 2 0 C2 1.32 2 2.64 2 4 C0.35 4.66 -1.3 5.32 -3 6 C-3 4.68 -3 3.36 -3 2 C-2.01 2 -1.02 2 0 2 C0 1.34 0 0.68 0 0 Z " fill="#536FF3" transform="translate(167,112)"/>
<path d="M0 0 C0.99 0 1.98 0 3 0 C3.2475 0.78375 3.495 1.5675 3.75 2.375 C5.15389099 5.32317108 6.00675737 5.9024777 9 7 C6.75 7.3125 6.75 7.3125 4 7 C0 2.89189189 0 2.89189189 0 0 Z " fill="#526AD6" transform="translate(258,108)"/>
<path d="M0 0 C0.6875 1.625 0.6875 1.625 1 4 C-0.4375 7.25 -0.4375 7.25 -2 10 C-2.66 10 -3.32 10 -4 10 C-3.52449439 8.51965236 -3.04448784 7.04074979 -2.5625 5.5625 C-2.29566406 4.73878906 -2.02882813 3.91507812 -1.75390625 3.06640625 C-1 1 -1 1 0 0 Z " fill="#5672DE" transform="translate(261,86)"/>
<path d="M0 0 C0.66 0.33 1.32 0.66 2 1 C1.67 2.65 1.34 4.3 1 6 C0.34 6 -0.32 6 -1 6 C-1.33 6.66 -1.66 7.32 -2 8 C-2.20086443 4.28400809 -2.1519437 3.22791555 0 0 Z " fill="#5271FB" transform="translate(165,89)"/>
<path d="M0 0 C0.66 0.66 1.32 1.32 2 2 C1.34 3.98 0.68 5.96 0 8 C-0.66 8 -1.32 8 -2 8 C-2 5.69 -2 3.38 -2 1 C-1.34 0.67 -0.68 0.34 0 0 Z " fill="#5268DC" transform="translate(401,5)"/>
<path d="M0 0 C0.33 0 0.66 0 1 0 C1 1.65 1 3.3 1 5 C1.66 5 2.32 5 3 5 C2.34 6.32 1.68 7.64 1 9 C0.34 8.67 -0.32 8.34 -1 8 C-0.67 5.36 -0.34 2.72 0 0 Z " fill="#506FE1" transform="translate(282,125)"/>
<path d="M0 0 C1.98 0.495 1.98 0.495 4 1 C2.02 3.97 2.02 3.97 0 7 C-0.93423645 3.98968256 -1.04449911 3.13349732 0 0 Z " fill="#5A6DE3" transform="translate(333,115)"/>
<path d="M0 0 C-0.57344937 2.86724686 -0.8614515 3.8614515 -3 6 C-3.66 5.67 -4.32 5.34 -5 5 C-5 4.01 -5 3.02 -5 2 C-2 0 -2 0 0 0 Z " fill="#546CEF" transform="translate(283,99)"/>
<path d="M0 0 C0.99 0 1.98 0 3 0 C2.67 1.65 2.34 3.3 2 5 C1.01 5 0.02 5 -1 5 C-1.33 5.66 -1.66 6.32 -2 7 C-2 5.68 -2 4.36 -2 3 C-1.34 3 -0.68 3 0 3 C0 2.01 0 1.02 0 0 Z " fill="#5172FA" transform="translate(135,81)"/>
<path d="M0 0 C1.32 0 2.64 0 4 0 C3.625 2.9375 3.625 2.9375 3 6 C2.01 6.495 2.01 6.495 1 7 C0.67 4.69 0.34 2.38 0 0 Z " fill="#496BF7" transform="translate(375,65)"/>
<path d="M0 0 C0 3.99904969 -1.72586967 5.80200422 -4 9 C-5 7 -5 7 -4.25 4.5 C-3 2 -3 2 0 0 Z " fill="#5570DC" transform="translate(378,50)"/>
<path d="M0 0 C0.99 0.33 1.98 0.66 3 1 C1.6875 3.5 1.6875 3.5 0 6 C-0.99 6 -1.98 6 -3 6 C-2.67 4.68 -2.34 3.36 -2 2 C-1.34 2 -0.68 2 0 2 C0 1.34 0 0.68 0 0 Z " fill="#4E6BF4" transform="translate(256,37)"/>
<path d="M0 0 C0.75 1.75 0.75 1.75 1 4 C-0.9375 6.25 -0.9375 6.25 -3 8 C-3.33 7.34 -3.66 6.68 -4 6 C-2.68 4.02 -1.36 2.04 0 0 Z " fill="#5570D8" transform="translate(316,118)"/>
<path d="M0 0 C0.99 0.33 1.98 0.66 3 1 C2.34 2.32 1.68 3.64 1 5 C0.01 4.67 -0.98 4.34 -2 4 C-1.34 2.68 -0.68 1.36 0 0 Z " fill="#506DEC" transform="translate(313,85)"/>
<path d="M0 0 C0.33 1.32 0.66 2.64 1 4 C-0.98 5.32 -2.96 6.64 -5 8 C-3.62845496 5.04590299 -2.01136276 2.55991624 0 0 Z " fill="#596ED7" transform="translate(377,29)"/>
<path d="M0 0 C0.66 0.33 1.32 0.66 2 1 C1.67 1.99 1.34 2.98 1 4 C0.34 4 -0.32 4 -1 4 C-1.66 5.32 -2.32 6.64 -3 8 C-3 4.42424104 -1.91159393 2.94704065 0 0 Z " fill="#6584FB" transform="translate(201,24)"/>
</svg>
